<svg width="160" height="48" viewBox="0 0 160 48" fill="none" xmlns="http://www.w3.org/2000/svg">
<g clip-path="url(#clip0_32_909)">
<path fill-rule="evenodd" clip-rule="evenodd" d="M99.4627 37.5375C90.1957 44.3599 76.7638 48 65.1991 48C48.9837 48 34.3855 42.0095 23.3415 32.0462C22.4738 31.2627 23.2513 30.195 24.2925 30.8051C36.2112 37.7316 50.9481 41.8986 66.171 41.8986C76.4375 41.8986 87.7315 39.777 98.116 35.3742C99.6848 34.7086 100.997 36.4004 99.4627 37.5375Z" fill="#999999"/>
<path fill-rule="evenodd" clip-rule="evenodd" d="M103.315 33.1348C102.135 31.6233 95.4851 32.4206 92.5003 32.7743C91.5909 32.8852 91.4521 32.0948 92.2712 31.5262C97.5676 27.803 106.258 28.8777 107.272 30.1257C108.285 31.3806 107.008 40.0821 102.031 44.2352C101.267 44.873 100.539 44.5333 100.879 43.6874C101.996 40.9002 104.502 34.6532 103.315 33.1348Z" fill="#999999"/>
<path fill-rule="evenodd" clip-rule="evenodd" d="M92.7085 5.24166V1.62242C92.7085 1.07468 93.125 0.707214 93.6248 0.707214H109.847C110.368 0.707214 110.784 1.08162 110.784 1.62242V4.72166C110.777 5.24166 110.34 5.92113 109.563 6.99581L101.156 18.9837C104.28 18.9074 107.577 19.3719 110.41 20.9666C111.048 21.3272 111.222 21.8541 111.27 22.3741V26.236C111.27 26.763 110.687 27.38 110.076 27.0611C105.085 24.4472 98.4561 24.1629 92.9376 27.0888C92.3753 27.3939 91.7853 26.7838 91.7853 26.2568V22.589C91.7853 21.9997 91.7922 20.9944 92.3823 20.1L102.121 6.14994H93.6456C93.125 6.14994 92.7085 5.78247 92.7085 5.24166Z" fill="#999999"/>
<path fill-rule="evenodd" clip-rule="evenodd" d="M33.5317 27.8237H28.5963C28.1243 27.7891 27.7494 27.4355 27.7147 26.9848V1.68483C27.7147 1.17869 28.1381 0.776549 28.6657 0.776549H33.2679C33.7469 0.797335 34.1287 1.16482 34.1634 1.62242V4.92966H34.2537C35.4545 1.73336 37.7105 0.242676 40.751 0.242676C43.8399 0.242676 45.7697 1.73336 47.158 4.92966C48.352 1.73336 51.0661 0.242676 53.9746 0.242676C56.0432 0.242676 58.3062 1.09548 59.6875 3.0091C61.2494 5.13766 60.9301 8.22995 60.9301 10.9409L60.9231 26.9085C60.9231 27.4147 60.4997 27.8237 59.9721 27.8237H55.0436C54.5508 27.7891 54.1551 27.3939 54.1551 26.9085V13.4993C54.1551 12.4316 54.2523 9.76917 54.0163 8.75689C53.6484 7.05821 52.5447 6.5798 51.1147 6.5798C49.9208 6.5798 48.6713 7.37715 48.1645 8.65289C47.6578 9.92864 47.7064 12.0641 47.7064 13.4993V26.9085C47.7064 27.4147 47.283 27.8237 46.7554 27.8237H41.8269C41.3271 27.7891 40.9384 27.3939 40.9384 26.9085L40.9314 13.4993C40.9314 10.6774 41.3965 6.52434 37.891 6.52434C34.3439 6.52434 34.4827 10.5734 34.4827 13.4993V26.9085C34.4827 27.4147 34.0593 27.8237 33.5317 27.8237" fill="#999999"/>
<path fill-rule="evenodd" clip-rule="evenodd" d="M124.751 0.242676C132.074 0.242676 136.038 6.52434 136.038 14.5116C136.038 22.2285 131.658 28.3507 124.751 28.3507C117.559 28.3507 113.644 22.069 113.644 14.2412C113.644 6.36487 117.608 0.242676 124.751 0.242676ZM124.792 5.40806C121.155 5.40806 120.926 10.3585 120.926 13.4439C120.926 16.5362 120.877 23.1368 124.751 23.1368C128.576 23.1368 128.756 17.8119 128.756 14.5671C128.756 12.4316 128.666 9.88011 128.02 7.85555C127.465 6.09447 126.361 5.40806 124.792 5.40806Z" fill="#999999"/>
<path fill-rule="evenodd" clip-rule="evenodd" d="M145.534 27.8237H140.619C140.126 27.7891 139.731 27.3939 139.731 26.9085L139.724 1.60162C139.765 1.13708 140.175 0.776549 140.675 0.776549H145.249C145.68 0.797335 146.034 1.08855 146.131 1.48376V5.35259H146.221C147.602 1.89283 149.539 0.242676 152.947 0.242676C155.162 0.242676 157.321 1.04002 158.709 3.22404C160 5.24859 160 8.65289 160 11.1004V27.0264C159.944 27.4701 159.535 27.8237 159.049 27.8237H154.1C153.648 27.7891 153.274 27.4563 153.225 27.0264V13.2844C153.225 10.518 153.544 6.46887 150.136 6.46887C148.935 6.46887 147.831 7.27315 147.283 8.49342C146.589 10.0396 146.499 11.5788 146.499 13.2844V26.9085C146.492 27.4147 146.061 27.8237 145.534 27.8237" fill="#999999"/>
<path fill-rule="evenodd" clip-rule="evenodd" d="M79.7764 15.7389C79.7764 17.6594 79.825 19.2611 78.8532 20.9667C78.0688 22.3534 76.8193 23.2062 75.4379 23.2062C73.5429 23.2062 72.4322 21.764 72.4322 19.6355C72.4322 15.4338 76.2015 14.6712 79.7764 14.6712V15.7389ZM84.7535 27.7545C84.4272 28.0457 83.9552 28.0665 83.5873 27.8724C81.9491 26.5134 81.6506 25.8825 80.7552 24.5859C78.0479 27.3454 76.1251 28.1705 72.6196 28.1705C68.4616 28.1705 65.2338 25.6121 65.2338 20.4883C65.2338 16.4877 67.3996 13.7629 70.4955 12.4317C73.175 11.253 76.9165 11.045 79.7764 10.7191V10.0812C79.7764 8.90949 79.8666 7.52281 79.1725 6.51053C78.5755 5.60225 77.4232 5.22785 76.4028 5.22785C74.5216 5.22785 72.8487 6.19159 72.4392 8.18841C72.3559 8.63215 72.0296 9.06896 71.5784 9.08976L66.7957 8.57668C66.3931 8.48655 65.9419 8.16068 66.0599 7.54361C67.1566 1.74728 72.4045 6.10352e-05 77.097 6.10352e-05C79.4987 6.10352e-05 82.6363 0.637936 84.5314 2.45449C86.9331 4.69398 86.7041 7.68228 86.7041 10.934V18.6163C86.7041 20.9251 87.662 21.9374 88.5644 23.1854C88.8768 23.6291 88.9462 24.163 88.5436 24.4958C87.537 25.3347 85.7461 26.8947 84.7604 27.7684L84.7535 27.7545" fill="#999999"/>
<path fill-rule="evenodd" clip-rule="evenodd" d="M15.0741 15.7389C15.0741 17.6594 15.1227 19.2611 14.1509 20.9667C13.3665 22.3534 12.124 23.2062 10.7356 23.2062C8.8406 23.2062 7.73689 21.764 7.73689 19.6355C7.73689 15.4338 11.5062 14.6712 15.0741 14.6712V15.7389ZM20.0512 27.7545C19.725 28.0457 19.2529 28.0665 18.885 27.8724C17.2468 26.5134 16.9553 25.8825 16.0529 24.5859C13.3457 27.3454 11.4298 28.1705 7.91737 28.1705C3.76632 28.1705 0.531555 25.6121 0.531555 20.4883C0.531555 16.4877 2.70426 13.7629 5.79326 12.4317C8.4727 11.253 12.2142 11.045 15.0741 10.7191V10.0812C15.0741 8.90949 15.1644 7.52281 14.4771 6.51053C13.8732 5.60225 12.7209 5.22785 11.7075 5.22785C9.8263 5.22785 8.14644 6.19159 7.73689 8.18841C7.65359 8.63215 7.32734 9.06896 6.88308 9.08976L2.09341 8.57668C1.69079 8.48655 1.24653 8.16068 1.3576 7.54361C2.46131 1.74728 7.70218 6.10352e-05 12.3947 6.10352e-05C14.7965 6.10352e-05 17.934 0.637936 19.8291 2.45449C22.2309 4.69398 22.0018 7.68228 22.0018 10.934V18.6163C22.0018 20.9251 22.9597 21.9374 23.8621 23.1854C24.1814 23.6291 24.2509 24.163 23.8482 24.4958C22.8417 25.3347 21.0508 26.8947 20.0651 27.7684L20.0512 27.7545" fill="#999999"/>
</g>
<defs>
<clipPath id="clip0_32_909">
<rect width="159.468" height="48" fill="white" transform="translate(0.531555)"/>
</clipPath>
</defs>
</svg>
